<?xml version="1.0" encoding="UTF-8" standalone="no"?>
<!DOCTYPE svg PUBLIC "-//W3C//DTD SVG 1.1//EN"
 "http://www.w3.org/Graphics/SVG/1.1/DTD/svg11.dtd">
<!-- Generated by graphviz version 2.43.0 (0)
 -->
<!-- Title: Inter&#45;AZ Latency Pages: 1 -->
<svg width="267pt" height="709pt"
 viewBox="0.00 0.00 267.01 709.07" xmlns="http://www.w3.org/2000/svg" xmlns:xlink="http://www.w3.org/1999/xlink">
<g id="graph0" class="graph" transform="scale(1 1) rotate(0) translate(4 705.07)">
<title>Inter&#45;AZ Latency</title>
<polygon fill="white" stroke="transparent" points="-4,4 -4,-705.07 263.01,-705.07 263.01,4 -4,4"/>
<!-- cac1&#45;az1\n(ca&#45;central&#45;1a) -->
<g id="node1" class="node">
<title>cac1&#45;az1\n(ca&#45;central&#45;1a)</title>
<ellipse fill="none" stroke="black" cx="109.23" cy="-591.3" rx="84.29" ry="26.74"/>
<text text-anchor="middle" x="109.23" y="-595.1" font-family="Times,serif" font-size="14.00">cac1&#45;az1</text>
<text text-anchor="middle" x="109.23" y="-580.1" font-family="Times,serif" font-size="14.00">(ca&#45;central&#45;1a)</text>
</g>
<!-- cac1&#45;az2\n(ca&#45;central&#45;1b) -->
<g id="node2" class="node">
<title>cac1&#45;az2\n(ca&#45;central&#45;1b)</title>
<ellipse fill="none" stroke="black" cx="174.16" cy="-674.2" rx="84.71" ry="26.74"/>
<text text-anchor="middle" x="174.16" y="-678" font-family="Times,serif" font-size="14.00">cac1&#45;az2</text>
<text text-anchor="middle" x="174.16" y="-663" font-family="Times,serif" font-size="14.00">(ca&#45;central&#45;1b)</text>
</g>
<!-- cac1&#45;az1\n(ca&#45;central&#45;1a)&#45;&#45;cac1&#45;az2\n(ca&#45;central&#45;1b) -->
<g id="edge1" class="edge">
<title>cac1&#45;az1\n(ca&#45;central&#45;1a)&#45;&#45;cac1&#45;az2\n(ca&#45;central&#45;1b)</title>
<path fill="none" stroke="black" d="M122.5,-618.17C129.31,-627.98 137.8,-639.02 145.95,-648.71"/>
<text text-anchor="middle" x="102.72" y="-622.29" font-family="Times,serif" font-size="14.00">0.392ms</text>
</g>
<!-- cac1&#45;az4\n(ca&#45;central&#45;1d) -->
<g id="node3" class="node">
<title>cac1&#45;az4\n(ca&#45;central&#45;1d)</title>
<ellipse fill="none" stroke="black" cx="84.85" cy="-26.87" rx="84.71" ry="26.74"/>
<text text-anchor="middle" x="84.85" y="-30.67" font-family="Times,serif" font-size="14.00">cac1&#45;az4</text>
<text text-anchor="middle" x="84.85" y="-15.67" font-family="Times,serif" font-size="14.00">(ca&#45;central&#45;1d)</text>
</g>
<!-- cac1&#45;az1\n(ca&#45;central&#45;1a)&#45;&#45;cac1&#45;az4\n(ca&#45;central&#45;1d) -->
<g id="edge2" class="edge">
<title>cac1&#45;az1\n(ca&#45;central&#45;1a)&#45;&#45;cac1&#45;az4\n(ca&#45;central&#45;1d)</title>
<path fill="none" stroke="black" d="M111.16,-564.33C111.93,-469.03 98.1,-148.88 89.12,-53.74"/>
<text text-anchor="middle" x="72.79" y="-297.77" font-family="Times,serif" font-size="14.00">0.891ms</text>
</g>
<!-- cac1&#45;az2\n(ca&#45;central&#45;1b)&#45;&#45;cac1&#45;az1\n(ca&#45;central&#45;1a) -->
<g id="edge3" class="edge">
<title>cac1&#45;az2\n(ca&#45;central&#45;1b)&#45;&#45;cac1&#45;az1\n(ca&#45;central&#45;1a)</title>
<path fill="none" stroke="black" d="M160.89,-647.33C154.08,-637.52 145.59,-626.48 137.44,-616.79"/>
<text text-anchor="middle" x="180.67" y="-635.81" font-family="Times,serif" font-size="14.00">0.382ms</text>
</g>
<!-- cac1&#45;az2\n(ca&#45;central&#45;1b)&#45;&#45;cac1&#45;az4\n(ca&#45;central&#45;1d) -->
<g id="edge4" class="edge">
<title>cac1&#45;az2\n(ca&#45;central&#45;1b)&#45;&#45;cac1&#45;az4\n(ca&#45;central&#45;1d)</title>
<path fill="none" stroke="black" d="M241.47,-657.97C241.53,-657.92 241.58,-657.87 241.61,-657.82 246.32,-650.87 164.81,-83.91 154.29,-42.76"/>
<text text-anchor="middle" x="172.66" y="-366.93" font-family="Times,serif" font-size="14.00">1.195ms</text>
</g>
<!-- cac1&#45;az4\n(ca&#45;central&#45;1d)&#45;&#45;cac1&#45;az1\n(ca&#45;central&#45;1a) -->
<g id="edge5" class="edge">
<title>cac1&#45;az4\n(ca&#45;central&#45;1d)&#45;&#45;cac1&#45;az1\n(ca&#45;central&#45;1a)</title>
<path fill="none" stroke="black" d="M82.92,-53.85C82.16,-149.14 95.99,-469.3 104.97,-564.43"/>
<text text-anchor="middle" x="59.29" y="-313" font-family="Times,serif" font-size="14.00">0.879ms</text>
</g>
<!-- cac1&#45;az4\n(ca&#45;central&#45;1d)&#45;&#45;cac1&#45;az2\n(ca&#45;central&#45;1b) -->
<g id="edge6" class="edge">
<title>cac1&#45;az4\n(ca&#45;central&#45;1d)&#45;&#45;cac1&#45;az2\n(ca&#45;central&#45;1b)</title>
<path fill="none" stroke="black" d="M144.55,-46.33C144.98,-46.62 145.31,-46.9 145.52,-47.15 151,-53.68 240.39,-647.02 235.89,-654.27 235.71,-654.55 235.42,-654.86 235.01,-655.17"/>
<text text-anchor="middle" x="163.38" y="-338.8" font-family="Times,serif" font-size="14.00">1.153ms</text>
</g>
</g>
</svg>
